<mxfile host="app.diagrams.net" modified="2024-03-13T14:39:36.099Z" agent="Mozilla/5.0 (Windows NT 10.0; Win64; x64; rv:123.0) Gecko/20100101 Firefox/123.0" etag="GRPCXcN3xEuEjcjyN1-G" version="24.0.5" type="device" pages="3">
  <diagram name="Formulaire_de_contact" id="KKa_pE2YO6h512ctvWDt">
    <mxGraphModel dx="1834" dy="1154" grid="0" gridSize="10" guides="1" tooltips="1" connect="1" arrows="1" fold="1" page="0" pageScale="1" pageWidth="1654" pageHeight="1169" math="0" shadow="0">
      <root>
        <mxCell id="0" />
        <mxCell id="1" parent="0" />
        <mxCell id="K9EGjIY9jjrKXqj7Ej17-2" value="" style="swimlane;startSize=0;" parent="1" vertex="1">
          <mxGeometry x="-217" y="-161" width="510" height="742" as="geometry" />
        </mxCell>
        <mxCell id="K9EGjIY9jjrKXqj7Ej17-9" value="&lt;b&gt;Envoyer un message&lt;br&gt;&lt;/b&gt;" style="text;html=1;align=center;verticalAlign=middle;whiteSpace=wrap;rounded=0;fontSize=16;fillColor=#fff2cc;strokeColor=#d6b656;" parent="K9EGjIY9jjrKXqj7Ej17-2" vertex="1">
          <mxGeometry x="132" y="11" width="246" height="30" as="geometry" />
        </mxCell>
        <mxCell id="K9EGjIY9jjrKXqj7Ej17-12" value="Saisir le mail &lt;br&gt;de contact" style="ellipse;whiteSpace=wrap;html=1;" parent="K9EGjIY9jjrKXqj7Ej17-2" vertex="1">
          <mxGeometry x="48" y="357" width="120" height="80" as="geometry" />
        </mxCell>
        <mxCell id="K9EGjIY9jjrKXqj7Ej17-13" value="Saisir le message" style="ellipse;whiteSpace=wrap;html=1;" parent="K9EGjIY9jjrKXqj7Ej17-2" vertex="1">
          <mxGeometry x="48" y="495" width="120" height="80" as="geometry" />
        </mxCell>
        <mxCell id="K9EGjIY9jjrKXqj7Ej17-14" value="&lt;br&gt;Valider et envoyer&lt;br&gt;le message&lt;div&gt;&lt;br&gt;&lt;/div&gt;" style="ellipse;whiteSpace=wrap;html=1;" parent="K9EGjIY9jjrKXqj7Ej17-2" vertex="1">
          <mxGeometry x="48" y="91" width="120" height="80" as="geometry" />
        </mxCell>
        <mxCell id="K9EGjIY9jjrKXqj7Ej17-11" value="Saisir le&lt;br&gt; nom / prÃ©nom" style="ellipse;whiteSpace=wrap;html=1;" parent="K9EGjIY9jjrKXqj7Ej17-2" vertex="1">
          <mxGeometry x="48" y="226" width="120" height="80" as="geometry" />
        </mxCell>
        <mxCell id="K9EGjIY9jjrKXqj7Ej17-15" value="Consulter le&lt;br&gt;message" style="ellipse;whiteSpace=wrap;html=1;" parent="K9EGjIY9jjrKXqj7Ej17-2" vertex="1">
          <mxGeometry x="308" y="344" width="120" height="80" as="geometry" />
        </mxCell>
        <mxCell id="K9EGjIY9jjrKXqj7Ej17-16" value="S&#39;authentifier" style="ellipse;whiteSpace=wrap;html=1;" parent="K9EGjIY9jjrKXqj7Ej17-2" vertex="1">
          <mxGeometry x="362" y="524" width="120" height="80" as="geometry" />
        </mxCell>
        <mxCell id="K9EGjIY9jjrKXqj7Ej17-18" value="" style="endArrow=block;dashed=1;endFill=0;endSize=12;html=1;rounded=0;fontSize=12;entryX=0.5;entryY=1;entryDx=0;entryDy=0;exitX=0.5;exitY=0;exitDx=0;exitDy=0;" parent="K9EGjIY9jjrKXqj7Ej17-2" source="K9EGjIY9jjrKXqj7Ej17-16" target="K9EGjIY9jjrKXqj7Ej17-15" edge="1">
          <mxGeometry width="160" relative="1" as="geometry">
            <mxPoint x="345" y="402" as="sourcePoint" />
            <mxPoint x="505" y="402" as="targetPoint" />
          </mxGeometry>
        </mxCell>
        <mxCell id="K9EGjIY9jjrKXqj7Ej17-19" value="&amp;lt;&amp;lt;extend&amp;gt;&amp;gt;" style="edgeLabel;html=1;align=center;verticalAlign=middle;resizable=0;points=[];fontSize=12;" parent="K9EGjIY9jjrKXqj7Ej17-18" vertex="1" connectable="0">
          <mxGeometry x="-0.2475" relative="1" as="geometry">
            <mxPoint y="-1" as="offset" />
          </mxGeometry>
        </mxCell>
        <mxCell id="K9EGjIY9jjrKXqj7Ej17-22" value="" style="endArrow=block;dashed=1;endFill=0;endSize=12;html=1;rounded=0;fontSize=12;entryX=0.5;entryY=0;entryDx=0;entryDy=0;exitX=0.5;exitY=1;exitDx=0;exitDy=0;" parent="K9EGjIY9jjrKXqj7Ej17-2" source="K9EGjIY9jjrKXqj7Ej17-11" target="K9EGjIY9jjrKXqj7Ej17-12" edge="1">
          <mxGeometry width="160" relative="1" as="geometry">
            <mxPoint x="141" y="308" as="sourcePoint" />
            <mxPoint x="146.5" y="374" as="targetPoint" />
          </mxGeometry>
        </mxCell>
        <mxCell id="K9EGjIY9jjrKXqj7Ej17-23" value="&amp;lt;&amp;lt;include&amp;gt;&amp;gt;" style="edgeLabel;html=1;align=center;verticalAlign=middle;resizable=0;points=[];fontSize=12;" parent="K9EGjIY9jjrKXqj7Ej17-22" vertex="1" connectable="0">
          <mxGeometry x="-0.322" y="4" relative="1" as="geometry">
            <mxPoint as="offset" />
          </mxGeometry>
        </mxCell>
        <mxCell id="K9EGjIY9jjrKXqj7Ej17-24" value="" style="endArrow=block;dashed=1;endFill=0;endSize=12;html=1;rounded=0;fontSize=12;entryX=0.5;entryY=0;entryDx=0;entryDy=0;exitX=0.5;exitY=1;exitDx=0;exitDy=0;" parent="K9EGjIY9jjrKXqj7Ej17-2" source="K9EGjIY9jjrKXqj7Ej17-12" target="K9EGjIY9jjrKXqj7Ej17-13" edge="1">
          <mxGeometry width="160" relative="1" as="geometry">
            <mxPoint x="107.5" y="444" as="sourcePoint" />
            <mxPoint x="107.5" y="503" as="targetPoint" />
          </mxGeometry>
        </mxCell>
        <mxCell id="K9EGjIY9jjrKXqj7Ej17-25" value="&amp;lt;&amp;lt;include&amp;gt;&amp;gt;" style="edgeLabel;html=1;align=center;verticalAlign=middle;resizable=0;points=[];fontSize=12;" parent="K9EGjIY9jjrKXqj7Ej17-24" vertex="1" connectable="0">
          <mxGeometry x="-0.322" y="4" relative="1" as="geometry">
            <mxPoint as="offset" />
          </mxGeometry>
        </mxCell>
        <mxCell id="K9EGjIY9jjrKXqj7Ej17-28" value="" style="endArrow=block;dashed=1;endFill=0;endSize=12;html=1;rounded=0;fontSize=12;entryX=0;entryY=0;entryDx=0;entryDy=0;exitX=1;exitY=0.5;exitDx=0;exitDy=0;" parent="K9EGjIY9jjrKXqj7Ej17-2" source="K9EGjIY9jjrKXqj7Ej17-14" target="K9EGjIY9jjrKXqj7Ej17-15" edge="1">
          <mxGeometry width="160" relative="1" as="geometry">
            <mxPoint x="206" y="618" as="sourcePoint" />
            <mxPoint x="206" y="677" as="targetPoint" />
          </mxGeometry>
        </mxCell>
        <mxCell id="K9EGjIY9jjrKXqj7Ej17-29" value="&amp;lt;&amp;lt;include&amp;gt;&amp;gt;" style="edgeLabel;html=1;align=center;verticalAlign=middle;resizable=0;points=[];fontSize=12;" parent="K9EGjIY9jjrKXqj7Ej17-28" vertex="1" connectable="0">
          <mxGeometry x="-0.322" y="4" relative="1" as="geometry">
            <mxPoint as="offset" />
          </mxGeometry>
        </mxCell>
        <mxCell id="KeJTLZSklm35wwTYYPml-1" value="" style="endArrow=block;dashed=1;endFill=0;endSize=12;html=1;rounded=0;fontSize=12;entryX=0.5;entryY=0;entryDx=0;entryDy=0;exitX=0.5;exitY=1;exitDx=0;exitDy=0;" edge="1" parent="K9EGjIY9jjrKXqj7Ej17-2" source="K9EGjIY9jjrKXqj7Ej17-14" target="K9EGjIY9jjrKXqj7Ej17-11">
          <mxGeometry width="160" relative="1" as="geometry">
            <mxPoint x="105" y="183" as="sourcePoint" />
            <mxPoint x="105" y="234" as="targetPoint" />
          </mxGeometry>
        </mxCell>
        <mxCell id="KeJTLZSklm35wwTYYPml-2" value="&amp;lt;&amp;lt;include&amp;gt;&amp;gt;" style="edgeLabel;html=1;align=center;verticalAlign=middle;resizable=0;points=[];fontSize=12;" vertex="1" connectable="0" parent="KeJTLZSklm35wwTYYPml-1">
          <mxGeometry x="-0.322" y="4" relative="1" as="geometry">
            <mxPoint as="offset" />
          </mxGeometry>
        </mxCell>
        <mxCell id="K9EGjIY9jjrKXqj7Ej17-3" value="Visiteur" style="shape=umlActor;verticalLabelPosition=bottom;verticalAlign=top;html=1;outlineConnect=0;" parent="1" vertex="1">
          <mxGeometry x="-326" y="-56.5" width="30" height="60" as="geometry" />
        </mxCell>
        <mxCell id="K9EGjIY9jjrKXqj7Ej17-4" value="Administrateur" style="shape=umlActor;verticalLabelPosition=bottom;verticalAlign=top;html=1;outlineConnect=0;" parent="1" vertex="1">
          <mxGeometry x="356" y="191" width="30" height="59" as="geometry" />
        </mxCell>
        <mxCell id="K9EGjIY9jjrKXqj7Ej17-5" value="User" style="shape=umlActor;verticalLabelPosition=bottom;verticalAlign=top;html=1;outlineConnect=0;fillColor=#f8cecc;strokeColor=#b85450;" parent="1" vertex="1">
          <mxGeometry x="356" y="20" width="30" height="60" as="geometry" />
        </mxCell>
        <mxCell id="K9EGjIY9jjrKXqj7Ej17-6" value="" style="endArrow=none;html=1;rounded=0;fontSize=12;startSize=8;endSize=8;entryX=0.5;entryY=0.5;entryDx=0;entryDy=0;entryPerimeter=0;exitX=0.5;exitY=0;exitDx=0;exitDy=0;exitPerimeter=0;fillColor=#f8cecc;strokeColor=#b85450;" parent="1" source="K9EGjIY9jjrKXqj7Ej17-4" target="K9EGjIY9jjrKXqj7Ej17-5" edge="1">
          <mxGeometry width="50" height="50" relative="1" as="geometry">
            <mxPoint x="343" y="169" as="sourcePoint" />
            <mxPoint x="393" y="119" as="targetPoint" />
          </mxGeometry>
        </mxCell>
        <mxCell id="K9EGjIY9jjrKXqj7Ej17-7" value="Extends" style="edgeLabel;html=1;align=center;verticalAlign=middle;resizable=0;points=[];fontSize=12;" parent="K9EGjIY9jjrKXqj7Ej17-6" vertex="1" connectable="0">
          <mxGeometry x="-0.1206" y="-2" relative="1" as="geometry">
            <mxPoint as="offset" />
          </mxGeometry>
        </mxCell>
        <mxCell id="K9EGjIY9jjrKXqj7Ej17-30" value="" style="endArrow=none;html=1;rounded=0;fontSize=12;startSize=8;endSize=8;entryX=0.5;entryY=0.5;entryDx=0;entryDy=0;entryPerimeter=0;exitX=1;exitY=0.5;exitDx=0;exitDy=0;" parent="1" source="K9EGjIY9jjrKXqj7Ej17-15" target="K9EGjIY9jjrKXqj7Ej17-4" edge="1">
          <mxGeometry width="50" height="50" relative="1" as="geometry">
            <mxPoint x="183" y="319" as="sourcePoint" />
            <mxPoint x="233" y="269" as="targetPoint" />
          </mxGeometry>
        </mxCell>
        <mxCell id="K9EGjIY9jjrKXqj7Ej17-31" value="" style="endArrow=none;html=1;rounded=0;fontSize=12;startSize=8;endSize=8;entryX=0.5;entryY=0.5;entryDx=0;entryDy=0;entryPerimeter=0;exitX=0;exitY=0.5;exitDx=0;exitDy=0;" parent="1" source="K9EGjIY9jjrKXqj7Ej17-14" target="K9EGjIY9jjrKXqj7Ej17-3" edge="1">
          <mxGeometry width="50" height="50" relative="1" as="geometry">
            <mxPoint x="-182" y="-26.5" as="sourcePoint" />
            <mxPoint x="233" y="179" as="targetPoint" />
          </mxGeometry>
        </mxCell>
      </root>
    </mxGraphModel>
  </diagram>
  <diagram id="HJQvAT3hR1Tsnpf6fxL0" name="Enregistrer_un_utilisateur">
    <mxGraphModel dx="1834" dy="1154" grid="0" gridSize="10" guides="1" tooltips="1" connect="1" arrows="1" fold="1" page="0" pageScale="1" pageWidth="1654" pageHeight="1169" math="0" shadow="0">
      <root>
        <mxCell id="0" />
        <mxCell id="1" parent="0" />
        <mxCell id="LzRoVjC6qyCOBvxKLQYN-1" value="" style="swimlane;startSize=0;" parent="1" vertex="1">
          <mxGeometry x="-217" y="-161" width="510" height="742" as="geometry" />
        </mxCell>
        <mxCell id="LzRoVjC6qyCOBvxKLQYN-2" value="&lt;b&gt;Enregistrer un utilisateur&lt;br&gt;&lt;/b&gt;" style="text;html=1;align=center;verticalAlign=middle;whiteSpace=wrap;rounded=0;fontSize=16;fillColor=#fff2cc;strokeColor=#d6b656;" parent="LzRoVjC6qyCOBvxKLQYN-1" vertex="1">
          <mxGeometry x="132" y="11" width="246" height="30" as="geometry" />
        </mxCell>
        <mxCell id="LzRoVjC6qyCOBvxKLQYN-4" value="Saisir le mail &lt;br&gt;de contact" style="ellipse;whiteSpace=wrap;html=1;" parent="LzRoVjC6qyCOBvxKLQYN-1" vertex="1">
          <mxGeometry x="33" y="370" width="120" height="80" as="geometry" />
        </mxCell>
        <mxCell id="LzRoVjC6qyCOBvxKLQYN-5" value="Saisir le message" style="ellipse;whiteSpace=wrap;html=1;" parent="LzRoVjC6qyCOBvxKLQYN-1" vertex="1">
          <mxGeometry x="33" y="508" width="120" height="80" as="geometry" />
        </mxCell>
        <mxCell id="LzRoVjC6qyCOBvxKLQYN-6" value="Envoyer &lt;br&gt;la demande" style="ellipse;whiteSpace=wrap;html=1;" parent="LzRoVjC6qyCOBvxKLQYN-1" vertex="1">
          <mxGeometry x="33" y="103" width="120" height="80" as="geometry" />
        </mxCell>
        <mxCell id="LzRoVjC6qyCOBvxKLQYN-7" value="Saisir le&lt;br&gt; nom / prÃ©nom" style="ellipse;whiteSpace=wrap;html=1;" parent="LzRoVjC6qyCOBvxKLQYN-1" vertex="1">
          <mxGeometry x="33" y="239" width="120" height="80" as="geometry" />
        </mxCell>
        <mxCell id="LzRoVjC6qyCOBvxKLQYN-8" value="Traiter&lt;br&gt;la demande" style="ellipse;whiteSpace=wrap;html=1;" parent="LzRoVjC6qyCOBvxKLQYN-1" vertex="1">
          <mxGeometry x="233.46" y="354" width="120" height="80" as="geometry" />
        </mxCell>
        <mxCell id="LzRoVjC6qyCOBvxKLQYN-9" value="S&#39;authentifier" style="ellipse;whiteSpace=wrap;html=1;" parent="LzRoVjC6qyCOBvxKLQYN-1" vertex="1">
          <mxGeometry x="372" y="636" width="100" height="62" as="geometry" />
        </mxCell>
        <mxCell id="LzRoVjC6qyCOBvxKLQYN-10" value="" style="endArrow=block;dashed=1;endFill=0;endSize=12;html=1;rounded=0;fontSize=12;exitX=0.5;exitY=0;exitDx=0;exitDy=0;entryX=1;entryY=1;entryDx=0;entryDy=0;" parent="LzRoVjC6qyCOBvxKLQYN-1" source="LzRoVjC6qyCOBvxKLQYN-9" target="LzRoVjC6qyCOBvxKLQYN-31" edge="1">
          <mxGeometry width="160" relative="1" as="geometry">
            <mxPoint x="367.46" y="445" as="sourcePoint" />
            <mxPoint x="527.46" y="445" as="targetPoint" />
          </mxGeometry>
        </mxCell>
        <mxCell id="LzRoVjC6qyCOBvxKLQYN-11" value="&amp;lt;&amp;lt;extend&amp;gt;&amp;gt;" style="edgeLabel;html=1;align=center;verticalAlign=middle;resizable=0;points=[];fontSize=12;" parent="LzRoVjC6qyCOBvxKLQYN-10" vertex="1" connectable="0">
          <mxGeometry x="-0.2475" relative="1" as="geometry">
            <mxPoint y="-1" as="offset" />
          </mxGeometry>
        </mxCell>
        <mxCell id="LzRoVjC6qyCOBvxKLQYN-12" value="" style="endArrow=block;dashed=1;endFill=0;endSize=12;html=1;rounded=0;fontSize=12;entryX=0.5;entryY=0;entryDx=0;entryDy=0;exitX=0.5;exitY=1;exitDx=0;exitDy=0;" parent="LzRoVjC6qyCOBvxKLQYN-1" source="LzRoVjC6qyCOBvxKLQYN-6" target="LzRoVjC6qyCOBvxKLQYN-7" edge="1">
          <mxGeometry width="160" relative="1" as="geometry">
            <mxPoint x="84" y="190" as="sourcePoint" />
            <mxPoint x="86" y="309" as="targetPoint" />
          </mxGeometry>
        </mxCell>
        <mxCell id="LzRoVjC6qyCOBvxKLQYN-13" value="&amp;lt;&amp;lt;include&amp;gt;&amp;gt;" style="edgeLabel;html=1;align=center;verticalAlign=middle;resizable=0;points=[];fontSize=12;" parent="LzRoVjC6qyCOBvxKLQYN-12" vertex="1" connectable="0">
          <mxGeometry x="-0.322" y="4" relative="1" as="geometry">
            <mxPoint as="offset" />
          </mxGeometry>
        </mxCell>
        <mxCell id="LzRoVjC6qyCOBvxKLQYN-14" value="" style="endArrow=block;dashed=1;endFill=0;endSize=12;html=1;rounded=0;fontSize=12;entryX=0.5;entryY=0;entryDx=0;entryDy=0;exitX=0.5;exitY=1;exitDx=0;exitDy=0;" parent="LzRoVjC6qyCOBvxKLQYN-1" source="LzRoVjC6qyCOBvxKLQYN-7" target="LzRoVjC6qyCOBvxKLQYN-4" edge="1">
          <mxGeometry width="160" relative="1" as="geometry">
            <mxPoint x="126" y="321" as="sourcePoint" />
            <mxPoint x="131.5" y="387" as="targetPoint" />
          </mxGeometry>
        </mxCell>
        <mxCell id="LzRoVjC6qyCOBvxKLQYN-15" value="&amp;lt;&amp;lt;include&amp;gt;&amp;gt;" style="edgeLabel;html=1;align=center;verticalAlign=middle;resizable=0;points=[];fontSize=12;" parent="LzRoVjC6qyCOBvxKLQYN-14" vertex="1" connectable="0">
          <mxGeometry x="-0.322" y="4" relative="1" as="geometry">
            <mxPoint as="offset" />
          </mxGeometry>
        </mxCell>
        <mxCell id="LzRoVjC6qyCOBvxKLQYN-16" value="" style="endArrow=block;dashed=1;endFill=0;endSize=12;html=1;rounded=0;fontSize=12;entryX=0.5;entryY=0;entryDx=0;entryDy=0;exitX=0.5;exitY=1;exitDx=0;exitDy=0;" parent="LzRoVjC6qyCOBvxKLQYN-1" source="LzRoVjC6qyCOBvxKLQYN-4" target="LzRoVjC6qyCOBvxKLQYN-5" edge="1">
          <mxGeometry width="160" relative="1" as="geometry">
            <mxPoint x="92.5" y="457" as="sourcePoint" />
            <mxPoint x="92.5" y="516" as="targetPoint" />
          </mxGeometry>
        </mxCell>
        <mxCell id="LzRoVjC6qyCOBvxKLQYN-17" value="&amp;lt;&amp;lt;include&amp;gt;&amp;gt;" style="edgeLabel;html=1;align=center;verticalAlign=middle;resizable=0;points=[];fontSize=12;" parent="LzRoVjC6qyCOBvxKLQYN-16" vertex="1" connectable="0">
          <mxGeometry x="-0.322" y="4" relative="1" as="geometry">
            <mxPoint as="offset" />
          </mxGeometry>
        </mxCell>
        <mxCell id="LzRoVjC6qyCOBvxKLQYN-20" value="" style="endArrow=block;dashed=1;endFill=0;endSize=12;html=1;rounded=0;fontSize=12;entryX=0;entryY=0;entryDx=0;entryDy=0;exitX=1;exitY=1;exitDx=0;exitDy=0;" parent="LzRoVjC6qyCOBvxKLQYN-1" source="LzRoVjC6qyCOBvxKLQYN-6" target="LzRoVjC6qyCOBvxKLQYN-31" edge="1">
          <mxGeometry width="160" relative="1" as="geometry">
            <mxPoint x="206" y="618" as="sourcePoint" />
            <mxPoint x="206" y="677" as="targetPoint" />
          </mxGeometry>
        </mxCell>
        <mxCell id="LzRoVjC6qyCOBvxKLQYN-21" value="&amp;lt;&amp;lt;include&amp;gt;&amp;gt;" style="edgeLabel;html=1;align=center;verticalAlign=middle;resizable=0;points=[];fontSize=12;" parent="LzRoVjC6qyCOBvxKLQYN-20" vertex="1" connectable="0">
          <mxGeometry x="-0.322" y="4" relative="1" as="geometry">
            <mxPoint as="offset" />
          </mxGeometry>
        </mxCell>
        <mxCell id="LzRoVjC6qyCOBvxKLQYN-30" value="Valider &lt;br&gt;la demande" style="ellipse;whiteSpace=wrap;html=1;" parent="LzRoVjC6qyCOBvxKLQYN-1" vertex="1">
          <mxGeometry x="233.46" y="217" width="120" height="80" as="geometry" />
        </mxCell>
        <mxCell id="LzRoVjC6qyCOBvxKLQYN-31" value="CrÃ©er &lt;br&gt;le compte" style="ellipse;whiteSpace=wrap;html=1;" parent="LzRoVjC6qyCOBvxKLQYN-1" vertex="1">
          <mxGeometry x="233.46" y="491" width="120" height="80" as="geometry" />
        </mxCell>
        <mxCell id="LzRoVjC6qyCOBvxKLQYN-34" value="RÃ©pondre&lt;br&gt; par mail" style="ellipse;whiteSpace=wrap;html=1;" parent="LzRoVjC6qyCOBvxKLQYN-1" vertex="1">
          <mxGeometry x="384" y="348" width="120" height="80" as="geometry" />
        </mxCell>
        <mxCell id="qgEk_KH4JyGCcL61efww-1" value="" style="endArrow=block;dashed=1;endFill=0;endSize=12;html=1;rounded=0;fontSize=12;exitX=0.5;exitY=1;exitDx=0;exitDy=0;entryX=1;entryY=0;entryDx=0;entryDy=0;" parent="LzRoVjC6qyCOBvxKLQYN-1" source="LzRoVjC6qyCOBvxKLQYN-34" target="LzRoVjC6qyCOBvxKLQYN-31" edge="1">
          <mxGeometry width="160" relative="1" as="geometry">
            <mxPoint x="416.03359312880724" y="429.2842712474617" as="sourcePoint" />
            <mxPoint x="357.46" y="560" as="targetPoint" />
          </mxGeometry>
        </mxCell>
        <mxCell id="qgEk_KH4JyGCcL61efww-2" value="&amp;lt;&amp;lt;extend&amp;gt;&amp;gt;" style="edgeLabel;html=1;align=center;verticalAlign=middle;resizable=0;points=[];fontSize=12;" parent="qgEk_KH4JyGCcL61efww-1" vertex="1" connectable="0">
          <mxGeometry x="-0.2475" relative="1" as="geometry">
            <mxPoint y="-1" as="offset" />
          </mxGeometry>
        </mxCell>
        <mxCell id="qgEk_KH4JyGCcL61efww-3" value="" style="endArrow=block;dashed=1;endFill=0;endSize=12;html=1;rounded=0;fontSize=12;entryX=0.5;entryY=1;entryDx=0;entryDy=0;exitX=0.5;exitY=0;exitDx=0;exitDy=0;" parent="LzRoVjC6qyCOBvxKLQYN-1" source="LzRoVjC6qyCOBvxKLQYN-8" target="LzRoVjC6qyCOBvxKLQYN-30" edge="1">
          <mxGeometry width="160" relative="1" as="geometry">
            <mxPoint x="245.46" y="321" as="sourcePoint" />
            <mxPoint x="245.46" y="380" as="targetPoint" />
          </mxGeometry>
        </mxCell>
        <mxCell id="qgEk_KH4JyGCcL61efww-4" value="&amp;lt;&amp;lt;include&amp;gt;&amp;gt;" style="edgeLabel;html=1;align=center;verticalAlign=middle;resizable=0;points=[];fontSize=12;" parent="qgEk_KH4JyGCcL61efww-3" vertex="1" connectable="0">
          <mxGeometry x="-0.322" y="4" relative="1" as="geometry">
            <mxPoint as="offset" />
          </mxGeometry>
        </mxCell>
        <mxCell id="qgEk_KH4JyGCcL61efww-5" value="" style="endArrow=block;dashed=1;endFill=0;endSize=12;html=1;rounded=0;fontSize=12;entryX=0.5;entryY=1;entryDx=0;entryDy=0;exitX=0.5;exitY=0;exitDx=0;exitDy=0;" parent="LzRoVjC6qyCOBvxKLQYN-1" source="LzRoVjC6qyCOBvxKLQYN-31" target="LzRoVjC6qyCOBvxKLQYN-8" edge="1">
          <mxGeometry width="160" relative="1" as="geometry">
            <mxPoint x="227.46" y="440" as="sourcePoint" />
            <mxPoint x="227.46" y="499" as="targetPoint" />
          </mxGeometry>
        </mxCell>
        <mxCell id="qgEk_KH4JyGCcL61efww-6" value="&amp;lt;&amp;lt;include&amp;gt;&amp;gt;" style="edgeLabel;html=1;align=center;verticalAlign=middle;resizable=0;points=[];fontSize=12;" parent="qgEk_KH4JyGCcL61efww-5" vertex="1" connectable="0">
          <mxGeometry x="-0.322" y="4" relative="1" as="geometry">
            <mxPoint as="offset" />
          </mxGeometry>
        </mxCell>
        <mxCell id="LzRoVjC6qyCOBvxKLQYN-22" value="Visiteur" style="shape=umlActor;verticalLabelPosition=bottom;verticalAlign=top;html=1;outlineConnect=0;" parent="1" vertex="1">
          <mxGeometry x="-324" y="-56.5" width="30" height="60" as="geometry" />
        </mxCell>
        <mxCell id="LzRoVjC6qyCOBvxKLQYN-23" value="Super- Administrateur" style="shape=umlActor;verticalLabelPosition=bottom;verticalAlign=top;html=1;outlineConnect=0;" parent="1" vertex="1">
          <mxGeometry x="394" y="282" width="30" height="60" as="geometry" />
        </mxCell>
        <mxCell id="LzRoVjC6qyCOBvxKLQYN-24" value="User" style="shape=umlActor;verticalLabelPosition=bottom;verticalAlign=top;html=1;outlineConnect=0;fillColor=#f8cecc;strokeColor=#b85450;" parent="1" vertex="1">
          <mxGeometry x="394" y="111" width="30" height="60" as="geometry" />
        </mxCell>
        <mxCell id="LzRoVjC6qyCOBvxKLQYN-25" value="" style="endArrow=none;html=1;rounded=0;fontSize=12;startSize=8;endSize=8;entryX=0.5;entryY=0.5;entryDx=0;entryDy=0;entryPerimeter=0;exitX=0.5;exitY=0;exitDx=0;exitDy=0;exitPerimeter=0;fillColor=#f8cecc;strokeColor=#b85450;" parent="1" source="LzRoVjC6qyCOBvxKLQYN-23" target="LzRoVjC6qyCOBvxKLQYN-24" edge="1">
          <mxGeometry width="50" height="50" relative="1" as="geometry">
            <mxPoint x="381" y="260" as="sourcePoint" />
            <mxPoint x="431" y="210" as="targetPoint" />
          </mxGeometry>
        </mxCell>
        <mxCell id="LzRoVjC6qyCOBvxKLQYN-26" value="Extends" style="edgeLabel;html=1;align=center;verticalAlign=middle;resizable=0;points=[];fontSize=12;" parent="LzRoVjC6qyCOBvxKLQYN-25" vertex="1" connectable="0">
          <mxGeometry x="-0.1206" y="-2" relative="1" as="geometry">
            <mxPoint as="offset" />
          </mxGeometry>
        </mxCell>
        <mxCell id="LzRoVjC6qyCOBvxKLQYN-27" value="" style="endArrow=none;html=1;rounded=0;fontSize=12;startSize=8;endSize=8;entryX=0.5;entryY=0.5;entryDx=0;entryDy=0;entryPerimeter=0;exitX=1;exitY=0.425;exitDx=0;exitDy=0;exitPerimeter=0;" parent="1" source="LzRoVjC6qyCOBvxKLQYN-31" target="LzRoVjC6qyCOBvxKLQYN-23" edge="1">
          <mxGeometry width="50" height="50" relative="1" as="geometry">
            <mxPoint x="183" y="319" as="sourcePoint" />
            <mxPoint x="233" y="269" as="targetPoint" />
          </mxGeometry>
        </mxCell>
        <mxCell id="LzRoVjC6qyCOBvxKLQYN-28" value="" style="endArrow=none;html=1;rounded=0;fontSize=12;startSize=8;endSize=8;entryX=0.5;entryY=0.5;entryDx=0;entryDy=0;entryPerimeter=0;exitX=0;exitY=0.5;exitDx=0;exitDy=0;" parent="1" source="LzRoVjC6qyCOBvxKLQYN-6" target="LzRoVjC6qyCOBvxKLQYN-22" edge="1">
          <mxGeometry width="50" height="50" relative="1" as="geometry">
            <mxPoint x="-182" y="-26.5" as="sourcePoint" />
            <mxPoint x="233" y="179" as="targetPoint" />
          </mxGeometry>
        </mxCell>
      </root>
    </mxGraphModel>
  </diagram>
  <diagram id="VJE22YCjWPD_lsQgCTQG" name="Ajouter_un _post">
    <mxGraphModel dx="1834" dy="1154" grid="0" gridSize="10" guides="1" tooltips="1" connect="1" arrows="1" fold="1" page="0" pageScale="1" pageWidth="1654" pageHeight="1169" math="0" shadow="0">
      <root>
        <mxCell id="0" />
        <mxCell id="1" parent="0" />
        <mxCell id="fsypOq9LFFAMc1UkOQ7M-1" value="" style="swimlane;startSize=0;" parent="1" vertex="1">
          <mxGeometry x="-217" y="-161" width="510" height="742" as="geometry" />
        </mxCell>
        <mxCell id="fsypOq9LFFAMc1UkOQ7M-2" value="&lt;b&gt;Saisir et publier un commentaire&lt;br&gt;&lt;/b&gt;" style="text;html=1;align=center;verticalAlign=middle;whiteSpace=wrap;rounded=0;fontSize=16;fillColor=#fff2cc;strokeColor=#d6b656;" parent="fsypOq9LFFAMc1UkOQ7M-1" vertex="1">
          <mxGeometry x="132" y="11" width="292" height="30" as="geometry" />
        </mxCell>
        <mxCell id="fsypOq9LFFAMc1UkOQ7M-5" value="Saisir le message" style="ellipse;whiteSpace=wrap;html=1;" parent="fsypOq9LFFAMc1UkOQ7M-1" vertex="1">
          <mxGeometry x="53" y="388" width="120" height="80" as="geometry" />
        </mxCell>
        <mxCell id="fsypOq9LFFAMc1UkOQ7M-6" value="&lt;br&gt;Envoyer&lt;br&gt;un commentaire&lt;br&gt;&lt;div&gt;&lt;br&gt;&lt;/div&gt;" style="ellipse;whiteSpace=wrap;html=1;" parent="fsypOq9LFFAMc1UkOQ7M-1" vertex="1">
          <mxGeometry x="53" y="83" width="120" height="80" as="geometry" />
        </mxCell>
        <mxCell id="fsypOq9LFFAMc1UkOQ7M-7" value="Ãcrire le titre" style="ellipse;whiteSpace=wrap;html=1;" parent="fsypOq9LFFAMc1UkOQ7M-1" vertex="1">
          <mxGeometry x="53" y="237" width="120" height="80" as="geometry" />
        </mxCell>
        <mxCell id="fsypOq9LFFAMc1UkOQ7M-8" value="Consulter le&lt;br&gt;commentaire" style="ellipse;whiteSpace=wrap;html=1;" parent="fsypOq9LFFAMc1UkOQ7M-1" vertex="1">
          <mxGeometry x="282" y="201" width="120" height="80" as="geometry" />
        </mxCell>
        <mxCell id="fsypOq9LFFAMc1UkOQ7M-9" value="S&#39;authentifier" style="ellipse;whiteSpace=wrap;html=1;" parent="fsypOq9LFFAMc1UkOQ7M-1" vertex="1">
          <mxGeometry x="375" y="627" width="120" height="80" as="geometry" />
        </mxCell>
        <mxCell id="fsypOq9LFFAMc1UkOQ7M-10" value="" style="endArrow=block;dashed=1;endFill=0;endSize=12;html=1;rounded=0;fontSize=12;exitX=0.5;exitY=0;exitDx=0;exitDy=0;entryX=1;entryY=1;entryDx=0;entryDy=0;" parent="fsypOq9LFFAMc1UkOQ7M-1" source="fsypOq9LFFAMc1UkOQ7M-9" target="y_8TqGlHKE1lz20obFUN-3" edge="1">
          <mxGeometry width="160" relative="1" as="geometry">
            <mxPoint x="345" y="402" as="sourcePoint" />
            <mxPoint x="505" y="402" as="targetPoint" />
          </mxGeometry>
        </mxCell>
        <mxCell id="fsypOq9LFFAMc1UkOQ7M-11" value="&amp;lt;&amp;lt;extend&amp;gt;&amp;gt;" style="edgeLabel;html=1;align=center;verticalAlign=middle;resizable=0;points=[];fontSize=12;" parent="fsypOq9LFFAMc1UkOQ7M-10" vertex="1" connectable="0">
          <mxGeometry x="-0.2475" relative="1" as="geometry">
            <mxPoint y="-1" as="offset" />
          </mxGeometry>
        </mxCell>
        <mxCell id="fsypOq9LFFAMc1UkOQ7M-12" value="" style="endArrow=block;dashed=1;endFill=0;endSize=12;html=1;rounded=0;fontSize=12;entryX=0.5;entryY=0;entryDx=0;entryDy=0;exitX=0.5;exitY=1;exitDx=0;exitDy=0;" parent="fsypOq9LFFAMc1UkOQ7M-1" source="fsypOq9LFFAMc1UkOQ7M-6" target="fsypOq9LFFAMc1UkOQ7M-7" edge="1">
          <mxGeometry width="160" relative="1" as="geometry">
            <mxPoint x="105" y="163" as="sourcePoint" />
            <mxPoint x="340" y="204" as="targetPoint" />
          </mxGeometry>
        </mxCell>
        <mxCell id="fsypOq9LFFAMc1UkOQ7M-13" value="&amp;lt;&amp;lt;include&amp;gt;&amp;gt;" style="edgeLabel;html=1;align=center;verticalAlign=middle;resizable=0;points=[];fontSize=12;" parent="fsypOq9LFFAMc1UkOQ7M-12" vertex="1" connectable="0">
          <mxGeometry x="-0.322" y="4" relative="1" as="geometry">
            <mxPoint as="offset" />
          </mxGeometry>
        </mxCell>
        <mxCell id="fsypOq9LFFAMc1UkOQ7M-14" value="" style="endArrow=block;dashed=1;endFill=0;endSize=12;html=1;rounded=0;fontSize=12;entryX=0.5;entryY=0;entryDx=0;entryDy=0;exitX=0.5;exitY=1;exitDx=0;exitDy=0;" parent="fsypOq9LFFAMc1UkOQ7M-1" source="fsypOq9LFFAMc1UkOQ7M-7" target="fsypOq9LFFAMc1UkOQ7M-5" edge="1">
          <mxGeometry width="160" relative="1" as="geometry">
            <mxPoint x="146" y="323" as="sourcePoint" />
            <mxPoint x="113" y="372" as="targetPoint" />
          </mxGeometry>
        </mxCell>
        <mxCell id="fsypOq9LFFAMc1UkOQ7M-15" value="&amp;lt;&amp;lt;include&amp;gt;&amp;gt;" style="edgeLabel;html=1;align=center;verticalAlign=middle;resizable=0;points=[];fontSize=12;" parent="fsypOq9LFFAMc1UkOQ7M-14" vertex="1" connectable="0">
          <mxGeometry x="-0.322" y="4" relative="1" as="geometry">
            <mxPoint as="offset" />
          </mxGeometry>
        </mxCell>
        <mxCell id="fsypOq9LFFAMc1UkOQ7M-20" value="" style="endArrow=block;dashed=1;endFill=0;endSize=12;html=1;rounded=0;fontSize=12;entryX=0;entryY=0.5;entryDx=0;entryDy=0;exitX=1;exitY=1;exitDx=0;exitDy=0;" parent="fsypOq9LFFAMc1UkOQ7M-1" source="fsypOq9LFFAMc1UkOQ7M-6" target="y_8TqGlHKE1lz20obFUN-3" edge="1">
          <mxGeometry width="160" relative="1" as="geometry">
            <mxPoint x="206" y="618" as="sourcePoint" />
            <mxPoint x="206" y="677" as="targetPoint" />
          </mxGeometry>
        </mxCell>
        <mxCell id="fsypOq9LFFAMc1UkOQ7M-21" value="&amp;lt;&amp;lt;include&amp;gt;&amp;gt;" style="edgeLabel;html=1;align=center;verticalAlign=middle;resizable=0;points=[];fontSize=12;" parent="fsypOq9LFFAMc1UkOQ7M-20" vertex="1" connectable="0">
          <mxGeometry x="-0.322" y="4" relative="1" as="geometry">
            <mxPoint x="-10" y="23" as="offset" />
          </mxGeometry>
        </mxCell>
        <mxCell id="y_8TqGlHKE1lz20obFUN-2" value="Valider l&#39;ajout du commentaire" style="ellipse;whiteSpace=wrap;html=1;" parent="fsypOq9LFFAMc1UkOQ7M-1" vertex="1">
          <mxGeometry x="282" y="345" width="120" height="80" as="geometry" />
        </mxCell>
        <mxCell id="y_8TqGlHKE1lz20obFUN-3" value="Publier &lt;br&gt;le commentaire" style="ellipse;whiteSpace=wrap;html=1;" parent="fsypOq9LFFAMc1UkOQ7M-1" vertex="1">
          <mxGeometry x="282" y="478" width="120" height="80" as="geometry" />
        </mxCell>
        <mxCell id="y_8TqGlHKE1lz20obFUN-4" value="" style="endArrow=block;dashed=1;endFill=0;endSize=12;html=1;rounded=0;fontSize=12;entryX=0.5;entryY=1;entryDx=0;entryDy=0;exitX=0.5;exitY=0;exitDx=0;exitDy=0;" parent="fsypOq9LFFAMc1UkOQ7M-1" source="y_8TqGlHKE1lz20obFUN-2" target="fsypOq9LFFAMc1UkOQ7M-8" edge="1">
          <mxGeometry width="160" relative="1" as="geometry">
            <mxPoint x="289" y="274" as="sourcePoint" />
            <mxPoint x="289" y="345" as="targetPoint" />
          </mxGeometry>
        </mxCell>
        <mxCell id="y_8TqGlHKE1lz20obFUN-5" value="&amp;lt;&amp;lt;include&amp;gt;&amp;gt;" style="edgeLabel;html=1;align=center;verticalAlign=middle;resizable=0;points=[];fontSize=12;" parent="y_8TqGlHKE1lz20obFUN-4" vertex="1" connectable="0">
          <mxGeometry x="-0.322" y="4" relative="1" as="geometry">
            <mxPoint as="offset" />
          </mxGeometry>
        </mxCell>
        <mxCell id="y_8TqGlHKE1lz20obFUN-6" value="" style="endArrow=block;dashed=1;endFill=0;endSize=12;html=1;rounded=0;fontSize=12;entryX=0.5;entryY=1;entryDx=0;entryDy=0;exitX=0.5;exitY=0;exitDx=0;exitDy=0;" parent="fsypOq9LFFAMc1UkOQ7M-1" source="y_8TqGlHKE1lz20obFUN-3" target="y_8TqGlHKE1lz20obFUN-2" edge="1">
          <mxGeometry width="160" relative="1" as="geometry">
            <mxPoint x="249" y="417" as="sourcePoint" />
            <mxPoint x="249" y="488" as="targetPoint" />
          </mxGeometry>
        </mxCell>
        <mxCell id="y_8TqGlHKE1lz20obFUN-7" value="&amp;lt;&amp;lt;include&amp;gt;&amp;gt;" style="edgeLabel;html=1;align=center;verticalAlign=middle;resizable=0;points=[];fontSize=12;" parent="y_8TqGlHKE1lz20obFUN-6" vertex="1" connectable="0">
          <mxGeometry x="-0.322" y="4" relative="1" as="geometry">
            <mxPoint as="offset" />
          </mxGeometry>
        </mxCell>
        <mxCell id="fsypOq9LFFAMc1UkOQ7M-22" value="Visiteur" style="shape=umlActor;verticalLabelPosition=bottom;verticalAlign=top;html=1;outlineConnect=0;" parent="1" vertex="1">
          <mxGeometry x="-323" y="-56.5" width="30" height="60" as="geometry" />
        </mxCell>
        <mxCell id="fsypOq9LFFAMc1UkOQ7M-23" value="Administrateur" style="shape=umlActor;verticalLabelPosition=bottom;verticalAlign=top;html=1;outlineConnect=0;" parent="1" vertex="1">
          <mxGeometry x="386" y="327" width="30" height="60" as="geometry" />
        </mxCell>
        <mxCell id="fsypOq9LFFAMc1UkOQ7M-24" value="User" style="shape=umlActor;verticalLabelPosition=bottom;verticalAlign=top;html=1;outlineConnect=0;fillColor=#f8cecc;strokeColor=#b85450;" parent="1" vertex="1">
          <mxGeometry x="386" y="156" width="30" height="60" as="geometry" />
        </mxCell>
        <mxCell id="fsypOq9LFFAMc1UkOQ7M-25" value="" style="endArrow=none;html=1;rounded=0;fontSize=12;startSize=8;endSize=8;entryX=0.5;entryY=0.5;entryDx=0;entryDy=0;entryPerimeter=0;exitX=0.5;exitY=0;exitDx=0;exitDy=0;exitPerimeter=0;fillColor=#f8cecc;strokeColor=#b85450;" parent="1" source="fsypOq9LFFAMc1UkOQ7M-23" target="fsypOq9LFFAMc1UkOQ7M-24" edge="1">
          <mxGeometry width="50" height="50" relative="1" as="geometry">
            <mxPoint x="373" y="305" as="sourcePoint" />
            <mxPoint x="423" y="255" as="targetPoint" />
          </mxGeometry>
        </mxCell>
        <mxCell id="fsypOq9LFFAMc1UkOQ7M-26" value="Extends" style="edgeLabel;html=1;align=center;verticalAlign=middle;resizable=0;points=[];fontSize=12;" parent="fsypOq9LFFAMc1UkOQ7M-25" vertex="1" connectable="0">
          <mxGeometry x="-0.1206" y="-2" relative="1" as="geometry">
            <mxPoint as="offset" />
          </mxGeometry>
        </mxCell>
        <mxCell id="fsypOq9LFFAMc1UkOQ7M-27" value="" style="endArrow=none;html=1;rounded=0;fontSize=12;startSize=8;endSize=8;entryX=0.5;entryY=0.5;entryDx=0;entryDy=0;entryPerimeter=0;exitX=1;exitY=0.5;exitDx=0;exitDy=0;" parent="1" source="y_8TqGlHKE1lz20obFUN-3" target="fsypOq9LFFAMc1UkOQ7M-23" edge="1">
          <mxGeometry width="50" height="50" relative="1" as="geometry">
            <mxPoint x="183" y="319" as="sourcePoint" />
            <mxPoint x="233" y="269" as="targetPoint" />
          </mxGeometry>
        </mxCell>
        <mxCell id="fsypOq9LFFAMc1UkOQ7M-28" value="" style="endArrow=none;html=1;rounded=0;fontSize=12;startSize=8;endSize=8;entryX=0.5;entryY=0.5;entryDx=0;entryDy=0;entryPerimeter=0;exitX=0;exitY=0.5;exitDx=0;exitDy=0;" parent="1" source="fsypOq9LFFAMc1UkOQ7M-6" target="fsypOq9LFFAMc1UkOQ7M-22" edge="1">
          <mxGeometry width="50" height="50" relative="1" as="geometry">
            <mxPoint x="-182" y="-26.5" as="sourcePoint" />
            <mxPoint x="233" y="179" as="targetPoint" />
          </mxGeometry>
        </mxCell>
      </root>
    </mxGraphModel>
  </diagram>
</mxfile>
